HIERARCHY
ROOT Hips
{
  OFFSET 5.70366 102.999 -1.77653
  CHANNELS 6 Xposition Yposition Zposition Zrotation Xrotation Yrotation
  JOINT RightUpLeg
  {
    OFFSET -8.9458 -8.66707 0.101652
    CHANNELS 3 Zrotation Xrotation Yrotation
    JOINT RightLeg
    {
      OFFSET 0 -44.4227 1.3727
      CHANNELS 3 Zrotation Xrotation Yrotation
      JOINT RightFoot
      {
        OFFSET 0.253549 -42.0924 -1.46059
        CHANNELS 3 Zrotation Xrotation Yrotation
        JOINT RightToes
        {
          OFFSET 0.04 -4.41509 8.4991
          CHANNELS 3 Zrotation Xrotation Yrotation
          End Site
          {
            OFFSET -0.08 -0.137448 9.77979
          }
        }
      }
    }
  }
  JOINT Spine
  {
    OFFSET 0 11.8905 0
    CHANNELS 3 Zrotation Xrotation Yrotation
    JOINT Spine1
    {
      OFFSET 0 25.6574 0.127663
      CHANNELS 3 Zrotation Xrotation Yrotation
      JOINT HEad
      {
        OFFSET 0 8.73416 0.011341
        CHANNELS 3 Zrotation Xrotation Yrotation
        End Site
        {
          OFFSET -0.29 12.7742 2.51395
        }
      }
      JOINT LeftShoulder1
      {
        OFFSET 8.99 -0.362252 -0.22
        CHANNELS 3 Zrotation Xrotation Yrotation
        JOINT LeftArm
        {
          OFFSET 10.2827 -0.00337999 0.322123
          CHANNELS 3 Zrotation Xrotation Yrotation
          JOINT LeftForeArm
          {
            OFFSET 26.2597 0.099144 -1.42434
            CHANNELS 3 Zrotation Xrotation Yrotation
            JOINT LeftHand
            {
              OFFSET 22.0902 0.085362 1.02216
              CHANNELS 3 Zrotation Xrotation Yrotation
              End Site
              {
                OFFSET 13.419 -0.6 1.50291
              }
            }
          }
        }
      }
      JOINT RightShoulder
      {
        OFFSET -8.99 -0.362252 -0.22
        CHANNELS 3 Zrotation Xrotation Yrotation
        JOINT RightArm
        {
          OFFSET -10.2827 -0.00338 0.322123
          CHANNELS 3 Zrotation Xrotation Yrotation
          JOINT RightForeArm
          {
            OFFSET -26.364 0.099144 -1.42434
            CHANNELS 3 Zrotation Xrotation Yrotation
            JOINT RightHand
            {
              OFFSET -22.0324 0.085362 1.02216
              CHANNELS 3 Zrotation Xrotation Yrotation
              End Site
              {
                OFFSET -13.3284 -0.6 1.50291
              }
            }
          }
        }
      }
    }
  }
  JOINT LeftUpLeg
  {
    OFFSET 8.9458 -8.66707 0.101652
    CHANNELS 3 Zrotation Xrotation Yrotation
    JOINT LeftLeg
    {
      OFFSET 0 -44.4227 1.3727
      CHANNELS 3 Zrotation Xrotation Yrotation
      JOINT LeftFoot
      {
        OFFSET -0.253549 -42.0924 -1.46059
        CHANNELS 3 Zrotation Xrotation Yrotation
        JOINT LeftToes
        {
          OFFSET -0.04 -4.41509 8.4991
          CHANNELS 3 Zrotation Xrotation Yrotation
          End Site
          {
            OFFSET 0.08 -0.047448 9.77979
          }
        }
      }
    }
  }
}
MOTION
Frames: 19
Frame Time: 0.041667
-198.559006 104.319000 4.200380 -0.765163 -0.489952 92.422501 1.553790 -3.580460 -0.732156 -1.502990 13.240600 -5.633440 -6.089770 -6.482500 -0.093134 0.046205 0.000531 0.662642 0.255279 0.324647 0.227729 -3.042810 0.207394 0.795359 3.325110 9.030780 -2.721710 0.616470 -0.052328 4.372860 6.404200 -42.018101 6.352800 1.071400 12.131600 -2.603860 -0.788505 10.011600 -3.015000 10.363400 0.470033 -2.217580 -7.470180 -33.388802 -15.582600 -6.307380 10.630000 8.725250 1.195010 10.045000 3.095220 -4.085310 -2.422450 0.429149 2.232560 9.836940 18.753099 3.591110 -4.781420 -0.076618 -0.000000 0.000009 -0.000000
-198.582993 104.319000 4.210700 -0.751559 -0.492217 92.495697 1.557850 -3.550210 -0.734616 -1.493230 13.188500 -5.697580 -6.034710 -6.448980 -0.093128 0.046205 0.000531 0.662642 0.245158 0.300137 0.230988 -3.079630 0.226362 0.805605 3.363250 9.073130 -2.883380 0.618385 -0.041690 4.242880 6.333280 -42.040501 6.302400 1.065230 12.133000 -2.697080 -0.860358 10.013600 -2.995430 10.503900 0.483471 -2.153840 -7.600430 -33.330799 -15.698800 -6.293380 10.590600 8.749050 1.362020 10.058100 3.136360 -4.096350 -2.415210 0.393704 2.276850 9.825630 18.709200 3.555970 -4.742800 -0.076613 -0.000000 0.000009 -0.000000
-198.651993 104.319000 4.236810 -0.750734 -0.501588 92.495300 1.583490 -3.587560 -0.708347 -1.489330 13.171500 -5.724030 -6.060260 -6.400560 -0.093119 0.046205 0.000531 0.662642 0.198135 0.218609 0.293779 -3.040600 0.360488 0.866249 3.354640 9.081810 -2.991280 0.487881 -0.027703 4.067110 6.227670 -42.171101 6.140430 1.094880 12.508900 -2.819810 -0.686892 9.998330 -2.797130 10.586100 0.498133 -2.079360 -7.699060 -33.476299 -15.799100 -6.467390 10.899200 8.704620 1.791310 10.100000 3.561490 -4.077520 -2.448410 0.389533 2.293990 9.802130 18.713400 3.528950 -4.691470 -0.076608 -0.000000 0.000009 -0.000000
-198.770004 104.319000 4.271250 -0.820737 -0.529717 92.383400 1.644750 -3.781030 -0.616689 -1.505060 13.227600 -5.710970 -6.119700 -6.356500 -0.092922 0.046205 0.000531 0.662642 0.191051 0.220845 0.389265 -3.020540 0.402545 0.959475 3.319950 9.017840 -2.991460 0.374387 -0.019104 3.960470 5.992020 -42.284500 5.841270 1.070860 13.067200 -2.940110 -0.034381 9.947610 -2.245510 10.637300 0.502576 -2.059150 -7.650150 -33.734600 -15.684300 -6.650800 11.347100 8.688040 1.856150 10.110600 3.791950 -4.013060 -2.647790 0.426445 2.256260 9.900370 18.782200 3.545240 -4.683620 -0.076607 -0.000000 0.000009 -0.000000
-198.893005 104.319000 4.301840 -0.906568 -0.582652 92.253899 1.738000 -3.978510 -0.488390 -1.536400 13.244000 -5.707310 -6.114780 -6.273290 -0.088191 0.046205 0.000531 0.662642 0.289000 0.351832 0.448255 -3.115130 0.283563 1.026710 3.271000 9.025960 -3.057050 0.312635 -0.019615 3.965090 5.716360 -42.250099 5.514420 0.928980 13.262300 -3.069460 0.438317 9.914130 -1.812280 10.739400 0.507316 -2.037080 -7.519110 -33.857399 -15.405900 -6.628040 11.818900 8.837920 1.599780 10.088200 3.697190 -3.923750 -2.925890 0.473811 2.219620 10.115800 18.850000 3.547070 -4.705740 -0.076609 -0.000000 0.000009 -0.000000
-198.987000 104.317001 4.326770 -0.938116 -0.624040 92.074600 1.818220 -4.085850 -0.373178 -1.576100 13.225000 -5.626600 -6.108520 -6.194570 -0.083571 0.046205 0.000531 0.662642 0.405518 0.529732 0.497281 -3.212630 0.149637 1.082440 3.205920 9.218440 -2.983900 0.135187 -0.031322 4.096890 5.573930 -42.349499 5.205740 0.919111 13.573700 -3.093920 -0.097463 9.953820 -2.385980 10.810800 0.504246 -2.054880 -7.338810 -33.997898 -14.998600 -6.554370 12.459600 9.104210 1.612200 10.092600 3.848120 -3.860850 -3.081680 0.517147 2.210010 10.249200 18.976900 3.506900 -4.722410 -0.076611 -0.000000 0.000009 -0.000000
-199.078995 104.307999 4.354790 -0.968831 -0.621058 91.861000 1.840100 -4.226000 -0.317062 -1.599050 13.277900 -5.451430 -6.167670 -6.185490 -0.081960 0.046205 0.000531 0.662642 0.444255 0.711305 0.561454 -3.237150 0.008760 1.147920 3.141090 9.480190 -2.640420 -0.195026 -0.044021 4.228030 5.537660 -42.641300 4.926620 1.062340 14.252700 -3.146870 -0.956666 10.029000 -3.456710 10.911800 0.505956 -2.063470 -7.205830 -34.284100 -14.715100 -6.554070 13.202200 9.576940 1.690390 10.106300 4.168430 -3.853680 -3.147830 0.527739 2.204590 10.209500 19.182899 3.529100 -4.702560 -0.076609 -0.000000 0.000009 -0.000000
-199.182999 104.305000 4.390140 -1.071030 -0.615594 91.749802 1.850150 -4.441260 -0.294901 -1.597760 13.336400 -5.340750 -6.232860 -6.159260 -0.080580 0.046205 0.000531 0.662642 0.426832 0.759507 0.595696 -3.221760 -0.025218 1.183770 3.095680 9.750780 -2.317500 -0.597521 -0.052155 4.297100 5.372370 -42.723400 4.680610 0.990529 14.501400 -3.620560 -0.851550 10.023900 -3.658260 11.278100 0.525248 -1.989780 -7.316660 -34.785301 -14.805100 -6.498010 14.448100 10.625600 1.434150 10.088300 4.318770 -3.848120 -3.308260 0.503007 2.196870 10.177900 19.323601 3.595660 -4.662210 -0.076605 -0.000000 0.000009 -0.000000
-199.289001 104.306000 4.426230 -1.167160 -0.635288 91.749702 1.890950 -4.605700 -0.246484 -1.599130 13.321900 -5.356780 -6.220080 -6.097260 -0.079013 0.046205 0.000531 0.662642 0.375194 0.632586 0.602119 -3.158040 0.241816 1.187940 3.131880 10.265100 -2.140240 -1.103170 -0.068284 4.437400 4.806470 -42.676899 4.267160 0.752859 14.500300 -4.483130 -0.062759 9.958930 -3.285080 11.953900 0.520508 -2.068700 -7.610610 -36.049599 -14.942000 -6.339210 16.941000 12.442800 1.166470 10.069800 4.523350 -3.806690 -3.554680 0.490557 2.192690 10.328200 19.333000 3.558630 -4.672970 -0.076606 -0.000000 0.000009 -0.000000
-199.414993 104.295998 4.452170 -1.110040 -0.632711 91.847603 1.882680 -4.627100 -0.261767 -1.573230 13.342000 -5.417620 -6.156240 -6.113730 -0.077212 0.046205 0.000531 0.662642 0.312414 0.673753 0.590286 -3.090220 0.571562 1.174930 3.302590 11.260200 -2.164940 -1.877310 -0.093293 4.632380 3.810690 -42.863201 3.427720 0.669935 15.364200 -5.259920 0.462048 9.920340 -3.404740 12.745900 0.480630 -2.326570 -7.797610 -38.363701 -15.053600 -6.058610 20.697399 14.904600 1.040050 10.066600 4.951980 -3.785640 -3.701540 0.495571 2.182970 10.581600 19.235001 3.489470 -4.730880 -0.076612 -0.000000 0.000009 -0.000000
-199.570999 104.280998 4.473980 -0.967726 -0.606612 92.054604 1.812440 -4.601400 -0.397037 -1.486970 13.432300 -5.493330 -6.168720 -6.141690 -0.075018 0.046205 0.000531 0.662642 0.303887 0.961543 0.518174 -3.127130 0.760378 1.119980 3.645490 12.621500 -2.447630 -3.011940 -0.116603 4.758880 2.535160 -43.034302 2.155940 0.568719 17.223700 -5.700180 0.694177 9.903840 -3.782060 13.643400 0.485650 -2.357680 -7.746880 -40.972599 -15.500100 -5.554220 25.451799 17.826099 0.726577 10.045800 5.437380 -3.784040 -3.768450 0.498734 2.151160 10.802400 19.045099 3.527860 -4.762820 -0.076616 -0.000000 0.000009 -0.000000
-199.740005 104.275002 4.507720 -0.972519 -0.625513 92.193199 1.822120 -4.737490 -0.440475 -1.427190 13.494900 -5.589970 -6.242520 -6.073220 -0.072267 0.046205 0.000531 0.662642 0.301021 1.024750 0.404558 -3.220200 1.116240 1.035700 4.109370 13.969600 -2.630090 -4.385130 -0.153879 4.955160 0.801310 -42.959301 0.535201 0.299297 19.544800 -5.935420 0.798564 9.895860 -3.920100 14.920900 0.544059 -2.165820 -6.774600 -42.136600 -15.274600 -4.868770 30.076500 20.912600 0.395149 10.020700 5.909260 -3.721600 -4.005760 0.499543 2.104970 11.030000 18.884501 3.557650 -4.773840 -0.076884 -0.000000 0.000009 -0.000000
-199.908005 104.272003 4.535660 -1.132440 -0.673946 92.166199 1.886760 -5.048420 -0.362774 -1.415080 13.533100 -5.631690 -6.271680 -5.989290 -0.068757 0.046205 0.000531 0.662642 0.200644 0.828583 0.307869 -3.238880 1.639960 0.958146 4.404630 15.010200 -2.561200 -5.968390 -0.227221 5.356030 -1.755680 -42.901402 -1.534750 0.141963 21.962000 -6.094010 0.655653 9.907690 -4.041700 16.526199 0.590713 -2.065320 -3.691600 -39.793598 -13.016300 -3.972990 31.979000 23.654499 0.359869 10.023100 6.402800 -3.656710 -4.391590 0.482350 2.099380 11.228600 18.891800 3.525870 -4.743210 -0.078593 -0.000000 0.000009 -0.000000
-200.061005 104.276001 4.526170 -1.292310 -0.681046 92.076797 1.843190 -5.355090 -0.399199 -1.352320 13.577400 -5.508490 -6.315450 -5.893970 -0.061974 0.046205 0.000531 0.662642 0.084872 0.790874 0.254688 -3.225910 1.954920 0.916118 4.412290 15.745600 -2.471510 -7.961720 -0.335052 5.857170 -5.025660 -42.818600 -4.095640 0.053292 24.392099 -6.200900 0.481556 9.922590 -4.219650 18.106300 0.626011 -2.021620 0.872959 -34.115601 -9.770150 -2.985890 30.616100 25.952700 0.428256 10.034400 6.759280 -3.700080 -4.679100 0.378310 2.157820 11.257700 19.063200 3.524610 -4.618140 -0.080888 -0.000000 0.000009 -0.000000
-200.181000 104.290001 4.492130 -1.472910 -0.688763 91.853500 1.781790 -5.633290 -0.450455 -1.293310 13.549400 -5.222800 -6.357760 -5.749060 -0.052270 0.046205 0.000531 0.662642 0.090109 0.898909 0.277097 -3.326120 2.099430 0.963291 4.417570 16.201599 -2.343360 -10.315800 -0.474222 6.384390 -8.575980 -42.395000 -6.781120 -0.210767 27.521900 -6.384730 0.583106 9.914680 -4.353980 19.823999 0.678423 -1.927020 5.293910 -28.410900 -6.765370 -2.352970 28.974100 28.131800 0.632827 10.056500 6.800540 -3.751260 -4.922830 0.287313 2.209040 11.220200 19.354300 3.495610 -4.500510 -0.083431 -0.000000 0.000009 -0.000000
-200.281006 104.297997 4.441720 -1.723780 -0.761322 91.508797 1.826210 -5.931700 -0.354537 -1.302270 13.405300 -4.944680 -6.259580 -5.627610 -0.046457 0.046205 0.000531 0.662642 0.156066 1.037630 0.345298 -3.484650 2.171820 1.060260 4.511780 16.183599 -2.402120 -12.667700 -0.643928 6.950490 -12.523500 -41.694500 -9.274990 -0.419844 31.460899 -6.848530 0.821204 9.895080 -4.598090 21.980101 0.780477 -1.698890 8.981750 -23.721800 -4.074180 -2.076610 28.138599 30.152599 1.077560 10.101000 6.677610 -3.728120 -5.254560 0.257835 2.241170 11.243500 19.681700 3.451690 -4.450210 -0.085884 -0.000000 0.000009 -0.000000
-200.358994 104.306000 4.337230 -1.940010 -0.853203 91.359001 1.813140 -6.151410 -0.374019 -1.236610 13.235400 -4.775480 -6.167940 -5.475370 -0.038846 0.046205 0.000531 0.662642 0.175419 1.371130 0.387818 -3.516050 2.014620 1.104330 4.616050 15.829700 -2.804310 -14.883400 -0.830486 7.502110 -17.154400 -40.585400 -11.676800 -0.572569 34.977501 -7.541920 1.010130 9.878810 -4.958430 24.124300 0.975664 -1.197820 12.286000 -19.156200 -2.130070 -1.950520 27.639200 32.010799 1.214550 10.109500 6.370510 -3.737350 -5.497860 0.183956 2.297250 11.168000 19.873400 3.517950 -4.378010 -0.089445 -0.000000 0.000009 -0.000000
-200.380997 104.320999 4.169910 -2.121370 -0.917873 91.426498 1.690060 -6.324830 -0.523595 -1.125230 13.183600 -4.662440 -6.107240 -5.338250 -0.031804 0.046205 0.000531 0.662642 0.151755 1.718600 0.425831 -3.448710 1.840910 1.128650 4.991700 15.659900 -2.824340 -16.975901 -1.024990 8.010840 -22.008600 -38.598000 -13.894000 -1.165870 38.074699 -8.327490 1.173240 9.863810 -5.270220 25.840401 1.149470 -0.788769 15.970400 -14.651000 -0.454839 -2.238660 27.769400 33.543701 0.990475 10.074500 5.657860 -3.791940 -5.630600 0.107516 2.301820 11.009700 19.890200 3.579150 -4.361990 -0.091848 -0.000000 0.000009 -0.000000
-200.339005 104.305000 3.957530 -2.364960 -0.992005 91.524597 1.636340 -6.606750 -0.473764 -1.171560 13.307000 -4.713390 -5.788280 -5.435130 -0.043837 0.046205 0.000531 0.662642 0.114062 1.808900 0.471222 -3.406340 1.896390 1.168870 5.677610 15.594300 -2.575660 -18.815500 -1.231280 8.529680 -26.717800 -35.857601 -15.649600 -1.913670 42.129601 -9.409530 1.355030 9.846190 -5.567500 27.517599 1.137010 -0.965710 19.694799 -10.275200 1.765390 -2.851490 28.453800 34.096199 0.985338 10.066700 5.244880 -3.827150 -5.900000 0.096975 2.234710 11.080200 19.834000 3.620320 -4.548440 -0.087005 -0.000000 0.000009 -0.000000
